<svg width="220" height="220" viewBox="0 0 220 220" fill="none" xmlns="http://www.w3.org/2000/svg">
<path d="M220 110C220 170.751 170.751 220 110 220C49.2487 220 0 170.751 0 110C0 49.2487 49.2487 0 110 0C170.751 0 220 49.2487 220 110ZM33 110C33 152.526 67.4741 187 110 187C152.526 187 187 152.526 187 110C187 67.4741 152.526 33 110 33C67.4741 33 33 67.4741 33 110Z" fill="#0B0B0B"/>
<path d="M43.8855 176.114C37.4419 182.558 26.8758 182.619 21.4674 175.285C7.60781 156.49 7.51343e-07 133.637 0 110C-9.27334e-07 80.8262 11.5892 52.8473 32.2182 32.2183C52.8472 11.5893 80.8262 3.1299e-06 110 0C133.637 -2.5359e-06 156.49 7.60781 175.285 21.4674C182.619 26.8758 182.558 37.4419 176.114 43.8855V43.8855C169.671 50.3292 159.29 50.1451 151.623 45.2193C139.302 37.3029 124.873 33 110 33C89.5783 33 69.9931 41.1125 55.5528 55.5528C41.1125 69.9931 33 89.5783 33 110C33 124.873 37.3029 139.302 45.2193 151.623C50.1452 159.29 50.3292 169.671 43.8855 176.114V176.114Z" fill="url(#paint0_linear_2_6477)"/>
<defs>
<linearGradient id="paint0_linear_2_6477" x1="0" y1="110" x2="220" y2="110" gradientUnits="userSpaceOnUse">
<stop stop-color="#FA709A"/>
<stop offset="1" stop-color="#FEE140"/>
</linearGradient>
</defs>
</svg>
