<svg width="221" height="220" viewBox="0 0 221 220" fill="none" xmlns="http://www.w3.org/2000/svg">
<path d="M220.5 110C220.5 170.751 171.251 220 110.5 220C49.7487 220 0.5 170.751 0.5 110C0.5 49.2487 49.7487 0 110.5 0C171.251 0 220.5 49.2487 220.5 110ZM33.5 110C33.5 152.526 67.9741 187 110.5 187C153.026 187 187.5 152.526 187.5 110C187.5 67.4741 153.026 33 110.5 33C67.9741 33 33.5 67.4741 33.5 110Z" fill="#0B0B0B"/>
<path d="M44.3855 176.114C37.9419 182.558 27.3762 182.619 21.9679 175.285C12.2054 162.046 5.49324 146.726 2.41294 130.425C-1.69348 108.695 0.845506 86.2309 9.69859 65.9651C18.5517 45.6993 33.3077 28.5725 52.0414 16.8196C70.775 5.06667 92.6162 -0.766647 114.715 0.0807898C136.814 0.928226 158.144 8.41707 175.923 21.5701C193.701 34.7232 207.103 52.9297 214.378 73.814C221.653 94.6983 222.464 117.29 216.705 138.643C212.386 154.659 204.52 169.421 193.772 181.873C187.818 188.771 177.288 187.902 171.357 180.984V180.984C165.426 174.065 166.404 163.729 171.902 156.462C177.843 148.612 182.254 139.653 184.844 130.05C188.875 115.103 188.307 99.2888 183.214 84.6698C178.122 70.0508 168.741 57.3062 156.296 48.0991C143.851 38.8919 128.92 33.6498 113.451 33.0566C97.9813 32.4633 82.6925 36.5467 69.579 44.7737C56.4654 53.0008 46.1362 64.9895 39.939 79.1755C33.7419 93.3616 31.9646 109.086 34.8391 124.298C36.686 134.071 40.3981 143.341 45.7197 151.624C50.6456 159.29 50.8292 169.671 44.3855 176.114V176.114Z" fill="url(#paint0_linear_2_6486)"/>
<defs>
<linearGradient id="paint0_linear_2_6486" x1="0.5" y1="110" x2="220.5" y2="110" gradientUnits="userSpaceOnUse">
<stop stop-color="#FA709A"/>
<stop offset="1" stop-color="#FEE140"/>
</linearGradient>
</defs>
</svg>
