<svg width="220" height="220" viewBox="0 0 220 220" fill="none" xmlns="http://www.w3.org/2000/svg">
<path d="M220 110C220 170.751 170.751 220 110 220C49.2487 220 0 170.751 0 110C0 49.2487 49.2487 0 110 0C170.751 0 220 49.2487 220 110ZM33 110C33 152.526 67.4741 187 110 187C152.526 187 187 152.526 187 110C187 67.4741 152.526 33 110 33C67.4741 33 33 67.4741 33 110Z" fill="#0B0B0B"/>
<path d="M43.8855 176.114C37.4419 182.558 26.8763 182.619 21.4679 175.285C13.7715 164.847 7.95486 153.095 4.3287 140.554C-0.83105 122.71 -1.38771 103.849 2.71062 85.7309C6.80895 67.6129 15.4288 50.8278 27.7663 36.941C40.1038 23.0542 55.7571 12.5179 73.2665 6.31465C90.7759 0.111453 109.571 -1.5566 127.899 1.46605C146.227 4.4887 163.492 12.1036 178.082 23.6006C192.672 35.0977 204.113 50.1023 211.338 67.2154C216.416 79.2421 219.295 92.0348 219.886 104.989C220.301 114.093 212.054 120.697 202.991 119.747V119.747C193.928 118.797 187.535 110.616 186.536 101.558C185.723 94.1846 183.845 86.9383 180.937 80.0508C175.879 68.0716 167.871 57.5684 157.657 49.5204C147.444 41.4725 135.359 36.1421 122.529 34.0262C109.7 31.9104 96.5431 33.078 84.2866 37.4203C72.03 41.7625 61.0727 49.1379 52.4364 58.8587C43.8002 68.5795 37.7663 80.329 34.8974 93.0116C32.0286 105.694 32.4183 118.897 36.0301 131.388C38.1067 138.57 41.2096 145.382 45.2198 151.624C50.1458 159.29 50.3292 169.671 43.8855 176.114V176.114Z" fill="url(#paint0_linear_2_6496)"/>
<defs>
<linearGradient id="paint0_linear_2_6496" x1="0" y1="110" x2="220" y2="110" gradientUnits="userSpaceOnUse">
<stop stop-color="#FA709A"/>
<stop offset="1" stop-color="#FEE140"/>
</linearGradient>
</defs>
</svg>
